<svg width="32" height="30" viewBox="0 0 32 30" fill="none" xmlns="http://www.w3.org/2000/svg">
<path d="M22.6712 0C21.1792 0 19.7532 0.353524 18.4329 1.05082C17.5341 1.52539 16.7084 2.15592 16 2.90402C15.2915 2.15592 14.4659 1.52539 13.5671 1.05082C12.2468 0.353524 10.8208 0 9.32869 0C4.18487 0 0 4.32541 0 9.64204C0 13.4077 1.92416 17.4072 5.71896 21.5294C8.88742 24.9713 12.7666 27.8404 15.4629 29.6412L16 30L16.5371 29.6412C19.2334 27.8405 23.1126 24.9713 26.2811 21.5294C30.0759 17.4072 32 13.4077 32 9.64204C32 4.32541 27.8151 0 22.6712 0ZM24.8471 20.1191C22.0154 23.1951 18.5661 25.8102 16 27.5603C13.4339 25.8101 9.98459 23.1951 7.15296 20.1191C3.71998 16.3901 1.97938 12.8651 1.97938 9.64204C1.97938 5.4535 5.27631 2.04585 9.32876 2.04585C11.6619 2.04585 13.8051 3.15355 15.2087 5.08484L16 6.17357L16.7913 5.08484C18.1949 3.15355 20.3381 2.04585 22.6712 2.04585C26.7237 2.04585 30.0206 5.4535 30.0206 9.64204C30.0206 12.8651 28.28 16.3901 24.8471 20.1191Z" fill="#292E48"/>
</svg>
